<?xml version="1.0" encoding="utf-8"?>
<!-- Generator: Adobe Illustrator 17.0.2, SVG Export Plug-In . SVG Version: 6.00 Build 0)  -->
<!DOCTYPE svg PUBLIC "-//W3C//DTD SVG 1.1//EN" "http://www.w3.org/Graphics/SVG/1.1/DTD/svg11.dtd">
<svg version="1.1" id="Layer_1" xmlns="http://www.w3.org/2000/svg" xmlns:xlink="http://www.w3.org/1999/xlink" x="0px" y="0px"
	 width="465.897px" height="51.529px" viewBox="0 0 465.897 51.529" enable-background="new 0 0 465.897 51.529"
	 xml:space="preserve">
<path fill="#FFFFFF" d="M79.923,23.02c-1.938-0.209-3.87-0.495-5.785-0.848c-0.758-1.976-1.437-4.017-2.04-6.12
	c1.635,0.602,3.298,1.145,4.983,1.615C77.95,19.523,78.897,21.309,79.923,23.02"/>
<path fill="none" stroke="#FFFFFF" stroke-width="3.035" stroke-miterlimit="10" d="M79.923,23.02
	c-1.938-0.209-3.87-0.495-5.785-0.848c-0.758-1.976-1.437-4.017-2.04-6.12c1.635,0.602,3.298,1.145,4.983,1.615
	C77.95,19.523,78.897,21.309,79.923,23.02z"/>
<path fill="#FFFFFF" d="M86.519,23.43c-1.936-0.028-3.879-0.141-5.819-0.33c-1.06-1.676-2.04-3.428-2.943-5.249
	c1.691,0.452,3.402,0.831,5.121,1.13C84.014,20.544,85.227,22.03,86.519,23.43"/>
<path fill="none" stroke="#FFFFFF" stroke-width="3.035" stroke-miterlimit="10" d="M86.519,23.43
	c-1.936-0.028-3.879-0.141-5.819-0.33c-1.06-1.676-2.04-3.428-2.943-5.249c1.691,0.452,3.402,0.831,5.121,1.13
	C84.014,20.544,85.227,22.03,86.519,23.43z"/>
<path fill="#FFFFFF" d="M93.073,23.204c-1.894,0.162-3.816,0.239-5.749,0.233c-1.323-1.362-2.568-2.811-3.734-4.338
	c1.719,0.276,3.445,0.47,5.162,0.583C90.117,20.945,91.557,22.121,93.073,23.204"/>
<path fill="none" stroke="#FFFFFF" stroke-width="3.035" stroke-miterlimit="10" d="M93.073,23.204
	c-1.894,0.162-3.816,0.239-5.749,0.233c-1.323-1.362-2.568-2.811-3.734-4.338c1.719,0.276,3.445,0.47,5.162,0.583
	C90.117,20.945,91.557,22.121,93.073,23.204z"/>
<path fill="#FFFFFF" d="M99.384,22.341c-1.808,0.345-3.665,0.611-5.551,0.795c-1.538-1.045-3.002-2.186-4.391-3.413
	c1.714,0.09,3.417,0.097,5.091,0.023C96.081,20.707,97.698,21.574,99.384,22.341"/>
<path fill="none" stroke="#FFFFFF" stroke-width="3.035" stroke-miterlimit="10" d="M99.384,22.341
	c-1.808,0.345-3.665,0.611-5.551,0.795c-1.538-1.045-3.002-2.186-4.391-3.413c1.714,0.09,3.417,0.097,5.091,0.023
	C96.081,20.707,97.698,21.574,99.384,22.341z"/>
<path fill="#FFFFFF" d="M54.328,16.718c-1.823-0.582-3.649-1.155-5.505-1.689c0.814-3,1.68-6.031,2.589-9.088
	c1.462,0.716,2.908,1.481,4.361,2.261C55.236,11.075,54.752,13.914,54.328,16.718"/>
<path fill="none" stroke="#FFFFFF" stroke-width="3.035" stroke-miterlimit="10" d="M54.328,16.718
	c-1.823-0.582-3.649-1.155-5.505-1.689c0.814-3,1.68-6.031,2.589-9.088c1.462,0.716,2.908,1.481,4.361,2.261
	C55.236,11.075,54.752,13.914,54.328,16.718z"/>
<path fill="#FFFFFF" d="M60.534,18.694c-1.833-0.568-3.654-1.157-5.475-1.74c0.374-2.777,0.809-5.591,1.299-8.438
	c1.454,0.784,2.92,1.582,4.411,2.366C60.626,13.528,60.546,16.133,60.534,18.694"/>
<path fill="none" stroke="#FFFFFF" stroke-width="3.035" stroke-miterlimit="10" d="M60.534,18.694
	c-1.833-0.568-3.654-1.157-5.475-1.74c0.374-2.777,0.809-5.591,1.299-8.438c1.454,0.784,2.92,1.582,4.411,2.366
	C60.626,13.528,60.546,16.133,60.534,18.694z"/>
<path fill="#FFFFFF" d="M66.855,20.526c-1.87-0.494-3.721-1.033-5.558-1.596c-0.036-2.53-0.004-5.106,0.092-7.724
	c1.498,0.781,3.021,1.546,4.576,2.273C66.191,15.88,66.486,18.23,66.855,20.526"/>
<path fill="none" stroke="#FFFFFF" stroke-width="3.035" stroke-miterlimit="10" d="M66.855,20.526
	c-1.87-0.494-3.721-1.033-5.558-1.596c-0.036-2.53-0.004-5.106,0.092-7.724c1.498,0.781,3.021,1.546,4.576,2.273
	C66.191,15.88,66.486,18.23,66.855,20.526z"/>
<path fill="#FFFFFF" d="M34.128,12.291c-2.252-0.151-4.648-0.184-7.261-0.065c2.384-3.549,4.783-7.118,7.187-10.704
	c2.106,0.011,4.016,0.181,5.802,0.479C37.926,5.45,36.014,8.881,34.128,12.291"/>
<path fill="none" stroke="#FFFFFF" stroke-width="3.035" stroke-miterlimit="10" d="M34.128,12.291
	c-2.252-0.151-4.648-0.184-7.261-0.065c2.384-3.549,4.783-7.118,7.187-10.704c2.106,0.011,4.016,0.181,5.802,0.479
	C37.926,5.45,36.014,8.881,34.128,12.291z"/>
<path fill="#FFFFFF" d="M41.318,13.213c-1.999-0.376-4.078-0.672-6.293-0.853c1.82-3.39,3.67-6.801,5.538-10.231
	c1.753,0.329,3.389,0.779,4.958,1.319C44.087,6.725,42.683,9.982,41.318,13.213"/>
<path fill="none" stroke="#FFFFFF" stroke-width="3.035" stroke-miterlimit="10" d="M41.318,13.213
	c-1.999-0.376-4.078-0.672-6.293-0.853c1.82-3.39,3.67-6.801,5.538-10.231c1.753,0.329,3.389,0.779,4.958,1.319
	C44.087,6.725,42.683,9.982,41.318,13.213z"/>
<path fill="#FFFFFF" d="M47.892,14.765c-1.869-0.519-3.772-0.993-5.75-1.392c1.305-3.209,2.65-6.442,4.026-9.696
	c1.551,0.563,3.043,1.208,4.513,1.907C49.706,8.671,48.774,11.733,47.892,14.765"/>
<path fill="none" stroke="#FFFFFF" stroke-width="3.035" stroke-miterlimit="10" d="M47.892,14.765
	c-1.869-0.519-3.772-0.993-5.75-1.392c1.305-3.209,2.65-6.442,4.026-9.696c1.551,0.563,3.043,1.208,4.513,1.907
	C49.706,8.671,48.774,11.733,47.892,14.765z"/>
<path fill="#FFFFFF" d="M73.288,22.011c-1.912-0.371-3.806-0.807-5.681-1.289c-0.413-2.264-0.75-4.583-1.016-6.953
	c1.564,0.718,3.16,1.394,4.785,2.013C71.937,17.919,72.573,19.997,73.288,22.011"/>
<path fill="none" stroke="#FFFFFF" stroke-width="3.035" stroke-miterlimit="10" d="M73.288,22.011
	c-1.912-0.371-3.806-0.807-5.681-1.289c-0.413-2.264-0.75-4.583-1.016-6.953c1.564,0.718,3.16,1.394,4.785,2.013
	C71.937,17.919,72.573,19.997,73.288,22.011z"/>
<path fill="#FFFFFF" d="M83.829,28.673c-2.232,0.114-4.479,0.147-6.727,0.106c-0.945-1.813-1.809-3.702-2.591-5.655
	c1.961,0.31,3.936,0.554,5.915,0.721C81.479,25.531,82.612,27.143,83.829,28.673"/>
<path fill="none" stroke="#FFFFFF" stroke-width="3.035" stroke-miterlimit="10" d="M83.829,28.673
	c-2.232,0.114-4.479,0.147-6.727,0.106c-0.945-1.813-1.809-3.702-2.591-5.655c1.961,0.31,3.936,0.554,5.915,0.721
	C81.479,25.531,82.612,27.143,83.829,28.673z"/>
<path fill="#FFFFFF" d="M91.348,27.963c-2.183,0.305-4.396,0.523-6.625,0.659c-1.25-1.492-2.417-3.065-3.504-4.717
	c1.98,0.147,3.963,0.214,5.935,0.199C88.473,25.478,89.871,26.766,91.348,27.963"/>
<path fill="none" stroke="#FFFFFF" stroke-width="3.035" stroke-miterlimit="10" d="M91.348,27.963
	c-2.183,0.305-4.396,0.523-6.625,0.659c-1.25-1.492-2.417-3.065-3.504-4.717c1.98,0.147,3.963,0.214,5.935,0.199
	C88.473,25.478,89.871,26.766,91.348,27.963z"/>
<path fill="#FFFFFF" d="M98.65,26.596c-2.087,0.495-4.227,0.907-6.398,1.234c-1.506-1.156-2.934-2.405-4.282-3.739
	c1.967-0.04,3.92-0.163,5.843-0.37C95.351,24.775,96.964,25.734,98.65,26.596"/>
<path fill="none" stroke="#FFFFFF" stroke-width="3.035" stroke-miterlimit="10" d="M98.65,26.596
	c-2.087,0.495-4.227,0.907-6.398,1.234c-1.506-1.156-2.934-2.405-4.282-3.739c1.967-0.04,3.92-0.163,5.843-0.37
	C95.351,24.775,96.964,25.734,98.65,26.596z"/>
<path fill="#FFFFFF" d="M105.523,24.609c-1.943,0.67-3.962,1.268-6.035,1.783c-1.708-0.821-3.344-1.742-4.906-2.758
	c1.914-0.228,3.795-0.54,5.624-0.928C101.913,23.441,103.687,24.077,105.523,24.609"/>
<path fill="none" stroke="#FFFFFF" stroke-width="3.035" stroke-miterlimit="10" d="M105.523,24.609
	c-1.943,0.67-3.962,1.268-6.035,1.783c-1.708-0.821-3.344-1.742-4.906-2.758c1.914-0.228,3.795-0.54,5.624-0.928
	C101.913,23.441,103.687,24.077,105.523,24.609z"/>
<path fill="#FFFFFF" d="M53.108,26.334c-2.273-0.333-4.564-0.667-6.901-0.974c0.683-2.926,1.427-5.887,2.225-8.878
	c1.922,0.503,3.811,1.044,5.695,1.593C53.723,20.867,53.381,23.621,53.108,26.334"/>
<path fill="none" stroke="#FFFFFF" stroke-width="3.035" stroke-miterlimit="10" d="M53.108,26.334
	c-2.273-0.333-4.564-0.667-6.901-0.974c0.683-2.926,1.427-5.887,2.225-8.878c1.922,0.503,3.811,1.044,5.695,1.593
	C53.723,20.867,53.381,23.621,53.108,26.334z"/>
<path fill="#FFFFFF" d="M60.781,27.428c-2.247-0.298-4.497-0.626-6.764-0.96c0.221-2.684,0.512-5.409,0.866-8.174
	c1.881,0.551,3.76,1.106,5.649,1.637C60.543,22.478,60.624,24.978,60.781,27.428"/>
<path fill="none" stroke="#FFFFFF" stroke-width="3.035" stroke-miterlimit="10" d="M60.781,27.428
	c-2.247-0.298-4.497-0.626-6.764-0.96c0.221-2.684,0.512-5.409,0.866-8.174c1.881,0.551,3.76,1.106,5.649,1.637
	C60.543,22.478,60.624,24.978,60.781,27.428z"/>
<path fill="#FFFFFF" d="M68.452,28.299c-2.248-0.202-4.493-0.46-6.739-0.749c-0.206-2.417-0.336-4.885-0.395-7.399
	c1.893,0.527,3.798,1.029,5.721,1.484C67.432,23.913,67.902,26.136,68.452,28.299"/>
<path fill="none" stroke="#FFFFFF" stroke-width="3.035" stroke-miterlimit="10" d="M68.452,28.299
	c-2.248-0.202-4.493-0.46-6.739-0.749c-0.206-2.417-0.336-4.885-0.395-7.399c1.893,0.527,3.798,1.029,5.721,1.484
	C67.432,23.913,67.902,26.136,68.452,28.299z"/>
<path fill="#FFFFFF" d="M27.686,24.089c-2.822,0.024-5.811,0.156-9.04,0.426c2.331-3.503,4.69-7.028,7.067-10.571
	c2.697-0.14,5.174-0.129,7.505-0.001C31.342,17.346,29.495,20.73,27.686,24.089"/>
<path fill="none" stroke="#FFFFFF" stroke-width="3.035" stroke-miterlimit="10" d="M27.686,24.089
	c-2.822,0.024-5.811,0.156-9.04,0.426c2.331-3.503,4.69-7.028,7.067-10.571c2.697-0.14,5.174-0.129,7.505-0.001
	C31.342,17.346,29.495,20.73,27.686,24.089z"/>
<path fill="#FFFFFF" d="M36.735,24.377c-2.525-0.178-5.148-0.285-7.928-0.288c1.742-3.342,3.526-6.706,5.339-10.09
	c2.291,0.157,4.443,0.429,6.513,0.78C39.307,18.003,37.996,21.204,36.735,24.377"/>
<path fill="none" stroke="#FFFFFF" stroke-width="3.035" stroke-miterlimit="10" d="M36.735,24.377
	c-2.525-0.178-5.148-0.285-7.928-0.288c1.742-3.342,3.526-6.706,5.339-10.09c2.291,0.157,4.443,0.429,6.513,0.78
	C39.307,18.003,37.996,21.204,36.735,24.377z"/>
<path fill="#FFFFFF" d="M45.034,25.209c-2.354-0.295-4.759-0.556-7.255-0.752c1.197-3.15,2.445-6.328,3.737-9.531
	c2.047,0.374,4.018,0.819,5.951,1.31C46.602,19.258,45.787,22.25,45.034,25.209"/>
<path fill="none" stroke="#FFFFFF" stroke-width="3.035" stroke-miterlimit="10" d="M45.034,25.209
	c-2.354-0.295-4.759-0.556-7.255-0.752c1.197-3.15,2.445-6.328,3.737-9.531c2.047,0.374,4.018,0.819,5.951,1.31
	C46.602,19.258,45.787,22.25,45.034,25.209z"/>
<path fill="#FFFFFF" d="M76.104,28.759c-2.249-0.061-4.5-0.192-6.748-0.38c-0.594-2.129-1.107-4.317-1.544-6.564
	c1.927,0.443,3.87,0.838,5.829,1.167C74.381,24.975,75.201,26.902,76.104,28.759"/>
<path fill="none" stroke="#FFFFFF" stroke-width="3.035" stroke-miterlimit="10" d="M76.104,28.759
	c-2.249-0.061-4.5-0.192-6.748-0.38c-0.594-2.129-1.107-4.317-1.544-6.564c1.927,0.443,3.87,0.838,5.829,1.167
	C74.381,24.975,75.201,26.902,76.104,28.759z"/>
<path fill="#FFFFFF" d="M88.398,33.665c-2.521,0.464-5.079,0.841-7.661,1.139c-1.142-1.639-2.198-3.358-3.171-5.15
	c2.294-0.006,4.583-0.086,6.856-0.247C85.665,30.911,86.989,32.333,88.398,33.665"/>
<path fill="none" stroke="#FFFFFF" stroke-width="3.035" stroke-miterlimit="10" d="M88.398,33.665
	c-2.521,0.464-5.079,0.841-7.661,1.139c-1.142-1.639-2.198-3.358-3.171-5.15c2.294-0.006,4.583-0.086,6.856-0.247
	C85.665,30.911,86.989,32.333,88.398,33.665z"/>
<path fill="#FFFFFF" d="M96.809,31.759c-2.416,0.658-4.888,1.229-7.399,1.715c-1.442-1.292-2.8-2.673-4.077-4.137
	c2.269-0.183,4.519-0.45,6.736-0.803C93.57,29.703,95.151,30.78,96.809,31.759"/>
<path fill="none" stroke="#FFFFFF" stroke-width="3.035" stroke-miterlimit="10" d="M96.809,31.759
	c-2.416,0.658-4.888,1.229-7.399,1.715c-1.442-1.292-2.8-2.673-4.077-4.137c2.269-0.183,4.519-0.45,6.736-0.803
	C93.57,29.703,95.151,30.78,96.809,31.759z"/>
<path fill="#FFFFFF" d="M104.814,29.19c-2.262,0.845-4.604,1.61-7.004,2.291c-1.686-0.937-3.295-1.972-4.826-3.099
	c2.206-0.374,4.376-0.835,6.49-1.377C101.183,27.836,102.964,28.564,104.814,29.19"/>
<path fill="none" stroke="#FFFFFF" stroke-width="3.035" stroke-miterlimit="10" d="M104.814,29.19
	c-2.262,0.845-4.604,1.61-7.004,2.291c-1.686-0.937-3.295-1.972-4.826-3.099c2.206-0.374,4.376-0.835,6.49-1.377
	C101.183,27.836,102.964,28.564,104.814,29.19z"/>
<path fill="#FFFFFF" d="M112.165,26.036c-2.051,1.005-4.208,1.947-6.448,2.812c-1.867-0.585-3.668-1.275-5.397-2.065
	c2.096-0.563,4.136-1.209,6.095-1.925C108.271,25.356,110.189,25.75,112.165,26.036"/>
<path fill="none" stroke="#FFFFFF" stroke-width="3.035" stroke-miterlimit="10" d="M112.165,26.036
	c-2.051,1.005-4.208,1.947-6.448,2.812c-1.867-0.585-3.668-1.275-5.397-2.065c2.096-0.563,4.136-1.209,6.095-1.925
	C108.271,25.356,110.189,25.75,112.165,26.036z"/>
<path fill="#FFFFFF" d="M52.442,35.62c-2.74-0.064-5.516-0.142-8.355-0.203c0.53-2.844,1.13-5.726,1.794-8.641
	c2.405,0.274,4.763,0.574,7.099,0.872C52.728,30.349,52.546,33.008,52.442,35.62"/>
<path fill="none" stroke="#FFFFFF" stroke-width="3.035" stroke-miterlimit="10" d="M52.442,35.62
	c-2.74-0.064-5.516-0.142-8.355-0.203c0.53-2.844,1.13-5.726,1.794-8.641c2.405,0.274,4.763,0.574,7.099,0.872
	C52.728,30.349,52.546,33.008,52.442,35.62z"/>
<path fill="#FFFFFF" d="M61.642,35.755c-2.674-0.004-5.37-0.049-8.098-0.109c0.05-2.581,0.176-5.209,0.374-7.88
	c2.329,0.297,4.64,0.586,6.945,0.844C61.044,31.045,61.302,33.427,61.642,35.755"/>
<path fill="none" stroke="#FFFFFF" stroke-width="3.035" stroke-miterlimit="10" d="M61.642,35.755
	c-2.674-0.004-5.37-0.049-8.098-0.109c0.05-2.581,0.176-5.209,0.374-7.88c2.329,0.297,4.64,0.586,6.945,0.844
	C61.044,31.045,61.302,33.427,61.642,35.755z"/>
<path fill="#FFFFFF" d="M70.701,35.582c-2.633,0.115-5.283,0.166-7.951,0.174c-0.391-2.291-0.7-4.639-0.93-7.038
	c2.303,0.249,4.604,0.464,6.904,0.624C69.3,31.484,69.958,33.567,70.701,35.582"/>
<path fill="none" stroke="#FFFFFF" stroke-width="3.035" stroke-miterlimit="10" d="M70.701,35.582
	c-2.633,0.115-5.283,0.166-7.951,0.174c-0.391-2.291-0.7-4.639-0.93-7.038c2.303,0.249,4.604,0.464,6.904,0.624
	C69.3,31.484,69.958,33.567,70.701,35.582z"/>
<path fill="#FFFFFF" d="M21.561,35.701c-3.42,0.205-7.028,0.503-10.902,0.927c2.25-3.452,4.542-6.927,6.864-10.423
	c3.317-0.29,6.388-0.442,9.292-0.491C25.019,29.067,23.265,32.396,21.561,35.701"/>
<path fill="none" stroke="#FFFFFF" stroke-width="3.035" stroke-miterlimit="10" d="M21.561,35.701
	c-3.42,0.205-7.028,0.503-10.902,0.927c2.25-3.452,4.542-6.927,6.864-10.423c3.317-0.29,6.388-0.442,9.292-0.491
	C25.019,29.067,23.265,32.396,21.561,35.701z"/>
<path fill="#FFFFFF" d="M32.557,35.323c-3.074,0.032-6.267,0.122-9.638,0.303c1.636-3.284,3.323-6.595,5.052-9.928
	c2.858-0.019,5.558,0.062,8.157,0.213C34.883,29.077,33.689,32.216,32.557,35.323"/>
<path fill="none" stroke="#FFFFFF" stroke-width="3.035" stroke-miterlimit="10" d="M32.557,35.323
	c-3.074,0.032-6.267,0.122-9.638,0.303c1.636-3.284,3.323-6.595,5.052-9.928c2.858-0.019,5.558,0.062,8.157,0.213
	C34.883,29.077,33.689,32.216,32.557,35.323z"/>
<path fill="#FFFFFF" d="M42.662,35.384c-2.863-0.055-5.794-0.089-8.836-0.07c1.066-3.081,2.194-6.195,3.376-9.335
	c2.571,0.168,5.048,0.399,7.471,0.662C43.939,29.59,43.265,32.506,42.662,35.384"/>
<path fill="none" stroke="#FFFFFF" stroke-width="3.035" stroke-miterlimit="10" d="M42.662,35.384
	c-2.863-0.055-5.794-0.089-8.836-0.07c1.066-3.081,2.194-6.195,3.376-9.335c2.571,0.168,5.048,0.399,7.471,0.662
	C43.939,29.59,43.265,32.506,42.662,35.384z"/>
<path fill="#FFFFFF" d="M79.588,34.929c-2.588,0.274-5.2,0.471-7.828,0.602c-0.788-1.976-1.49-4.021-2.11-6.127
	c2.301,0.144,4.601,0.231,6.897,0.247C77.477,31.484,78.489,33.245,79.588,34.929"/>
<path fill="none" stroke="#FFFFFF" stroke-width="3.035" stroke-miterlimit="10" d="M79.588,34.929
	c-2.588,0.274-5.2,0.471-7.828,0.602c-0.788-1.976-1.49-4.021-2.11-6.127c2.301,0.144,4.601,0.231,6.897,0.247
	C77.477,31.484,78.489,33.245,79.588,34.929z"/>
<path fill="#FFFFFF" d="M93.645,37.948c-2.801,0.833-5.665,1.58-8.577,2.24c-1.343-1.447-2.599-2.981-3.769-4.595
	c2.628-0.347,5.229-0.775,7.79-1.29C90.523,35.609,92.043,36.826,93.645,37.948"/>
<path fill="none" stroke="#FFFFFF" stroke-width="3.035" stroke-miterlimit="10" d="M93.645,37.948
	c-2.801,0.833-5.665,1.58-8.577,2.24c-1.343-1.447-2.599-2.981-3.769-4.595c2.628-0.347,5.229-0.775,7.79-1.29
	C90.523,35.609,92.043,36.826,93.645,37.948z"/>
<path fill="#FFFFFF" d="M102.906,34.772c-2.634,1.03-5.354,1.977-8.138,2.835c-1.633-1.078-3.184-2.251-4.651-3.514
	c2.549-0.535,5.056-1.158,7.503-1.867C99.305,33.174,101.068,34.025,102.906,34.772"/>
<path fill="none" stroke="#FFFFFF" stroke-width="3.035" stroke-miterlimit="10" d="M102.906,34.772
	c-2.634,1.03-5.354,1.977-8.138,2.835c-1.633-1.078-3.184-2.251-4.651-3.514c2.549-0.535,5.056-1.158,7.503-1.867
	C99.305,33.174,101.068,34.025,102.906,34.772z"/>
<path fill="#FFFFFF" d="M111.539,30.941c-2.412,1.207-4.935,2.344-7.545,3.396c-1.862-0.7-3.649-1.506-5.36-2.41
	c2.431-0.731,4.8-1.548,7.085-2.442C107.591,30.078,109.533,30.564,111.539,30.941"/>
<path fill="none" stroke="#FFFFFF" stroke-width="3.035" stroke-miterlimit="10" d="M111.539,30.941
	c-2.412,1.207-4.935,2.344-7.545,3.396c-1.862-0.7-3.649-1.506-5.36-2.41c2.431-0.731,4.8-1.548,7.085-2.442
	C107.591,30.078,109.533,30.564,111.539,30.941z"/>
<path fill="#FFFFFF" d="M119.271,26.587c-2.126,1.345-4.392,2.641-6.771,3.866c-2.022-0.335-3.981-0.78-5.873-1.33
	c2.261-0.915,4.436-1.905,6.499-2.958C115.12,26.417,117.17,26.559,119.271,26.587"/>
<path fill="none" stroke="#FFFFFF" stroke-width="3.035" stroke-miterlimit="10" d="M119.271,26.587
	c-2.126,1.345-4.392,2.641-6.771,3.866c-2.022-0.335-3.981-0.78-5.873-1.33c2.261-0.915,4.436-1.905,6.499-2.958
	C115.12,26.417,117.17,26.559,119.271,26.587z"/>
<path fill="#FFFFFF" d="M52.405,44.528c-3.223,0.228-6.501,0.431-9.863,0.635c0.355-2.75,0.789-5.543,1.296-8.375
	c2.911,0.028,5.756,0.069,8.563,0.095C52.322,39.479,52.322,42.029,52.405,44.528"/>
<path fill="none" stroke="#FFFFFF" stroke-width="3.035" stroke-miterlimit="10" d="M52.405,44.528
	c-3.223,0.228-6.501,0.431-9.863,0.635c0.355-2.75,0.789-5.543,1.296-8.375c2.911,0.028,5.756,0.069,8.563,0.095
	C52.322,39.479,52.322,42.029,52.405,44.528z"/>
<path fill="#FFFFFF" d="M63.168,43.628c-3.113,0.316-6.267,0.579-9.474,0.813c-0.139-2.466-0.193-4.985-0.169-7.551
	c2.794,0.022,5.553,0.026,8.287-0.012C62.179,39.187,62.629,41.439,63.168,43.628"/>
<path fill="none" stroke="#FFFFFF" stroke-width="3.035" stroke-miterlimit="10" d="M63.168,43.628
	c-3.113,0.316-6.267,0.579-9.474,0.813c-0.139-2.466-0.193-4.985-0.169-7.551c2.794,0.022,5.553,0.026,8.287-0.012
	C62.179,39.187,62.629,41.439,63.168,43.628z"/>
<path fill="#FFFFFF" d="M73.647,42.326c-3.024,0.457-6.086,0.841-9.188,1.17c-0.59-2.15-1.093-4.363-1.512-6.635
	c2.729-0.051,5.437-0.147,8.124-0.306C71.842,38.548,72.7,40.473,73.647,42.326"/>
<path fill="none" stroke="#FFFFFF" stroke-width="3.035" stroke-miterlimit="10" d="M73.647,42.326
	c-3.024,0.457-6.086,0.841-9.188,1.17c-0.59-2.15-1.093-4.363-1.512-6.635c2.729-0.051,5.437-0.147,8.124-0.306
	C71.842,38.548,72.7,40.473,73.647,42.326z"/>
<path fill="#FFFFFF" d="M15.84,47.114c-4.043,0.396-8.295,0.869-12.841,1.45c2.142-3.399,4.338-6.823,6.575-10.268
	c3.964-0.445,7.659-0.765,11.163-0.995C19.049,40.598,17.413,43.87,15.84,47.114"/>
<path fill="none" stroke="#FFFFFF" stroke-width="3.035" stroke-miterlimit="10" d="M15.84,47.114
	c-4.043,0.396-8.295,0.869-12.841,1.45c2.142-3.399,4.338-6.823,6.575-10.268c3.964-0.445,7.659-0.765,11.163-0.995
	C19.049,40.598,17.413,43.87,15.84,47.114z"/>
<path fill="#FFFFFF" d="M28.866,46.027c-3.647,0.259-7.433,0.561-11.418,0.935c1.502-3.222,3.067-6.47,4.685-9.745
	c3.455-0.208,6.729-0.328,9.882-0.392C30.901,39.923,29.848,42.993,28.866,46.027"/>
<path fill="none" stroke="#FFFFFF" stroke-width="3.035" stroke-miterlimit="10" d="M28.866,46.027
	c-3.647,0.259-7.433,0.561-11.418,0.935c1.502-3.222,3.067-6.47,4.685-9.745c3.455-0.208,6.729-0.328,9.882-0.392
	C30.901,39.923,29.848,42.993,28.866,46.027z"/>
<path fill="#FFFFFF" d="M40.853,45.259c-3.39,0.205-6.869,0.417-10.477,0.664c0.911-3.006,1.894-6.048,2.939-9.121
	c3.121-0.049,6.127-0.046,9.062-0.024C41.796,39.644,41.286,42.473,40.853,45.259"/>
<path fill="none" stroke="#FFFFFF" stroke-width="3.035" stroke-miterlimit="10" d="M40.853,45.259
	c-3.39,0.205-6.869,0.417-10.477,0.664c0.911-3.006,1.894-6.048,2.939-9.121c3.121-0.049,6.127-0.046,9.062-0.024
	C41.796,39.644,41.286,42.473,40.853,45.259z"/>
<path fill="#FFFFFF" d="M83.773,40.474c-2.928,0.635-5.902,1.186-8.916,1.662c-0.991-1.81-1.893-3.696-2.708-5.652
	c2.682-0.177,5.343-0.421,7.979-0.744C81.256,37.398,82.471,38.979,83.773,40.474"/>
<path fill="none" stroke="#FFFFFF" stroke-width="3.035" stroke-miterlimit="10" d="M83.773,40.474
	c-2.928,0.635-5.902,1.186-8.916,1.662c-0.991-1.81-1.893-3.696-2.708-5.652c2.682-0.177,5.343-0.421,7.979-0.744
	C81.256,37.398,82.471,38.979,83.773,40.474z"/>
<path fill="#FFFFFF" d="M178.897,37.598c-1.228,2.322-2.39,4.507-4.711,6.831c-4.917,4.845-11.812,7.1-18.709,7.1
	c-17.209,0-24.993-12.974-24.993-25.333c0-12.974,8.672-26.156,24.993-26.156c7.305,0,14.271,2.596,19.322,7.787
	c2.049,2.116,3.005,3.754,4.031,5.668l-12.771,6.348c-1.229-2.867-3.549-7.988-9.97-7.988c-3.346,0-5.462,1.571-6.487,2.594
	c-3.618,3.482-3.618,8.945-3.618,10.857c0,7.171,2.663,13.932,10.175,13.932c7.102,0,9.219-6.283,9.764-7.923L178.897,37.598z"/>
<rect x="181.282" y="1.816" fill="#FFFFFF" width="14.135" height="48.208"/>
<path fill="#FFFFFF" d="M236.52,41.764c-4.167,6.349-10.311,9.699-18.777,9.699c-13.11,0-19.53-9.426-19.53-19.258
	c0-11.541,7.99-18.982,19.461-18.982c4.302,0,9.9,1.091,14.203,5.256c5.19,5.121,5.256,10.995,5.393,16.388h-24.717
	c0.067,1.572,0.137,3.413,1.708,4.984c0.341,0.345,1.638,1.639,4.232,1.639c3.211,0,4.985-1.707,6.418-4.575L236.52,41.764z
	 M222.933,27.423c-0.069-0.545-0.069-1.092-0.207-1.64c-0.613-2.525-2.797-3.618-4.711-3.618c-4.232,0-4.986,3.691-5.325,5.258
	H222.933z"/>
<path fill="#FFFFFF" d="M240.349,25.306c0.549-3.004,1.299-6.76,6.353-9.424c3.961-2.045,9.012-2.386,12.702-2.386
	c16.795,0,16.795,8.669,16.795,12.902v19.258c0,2.324,0.205,2.934,1.228,4.368h-13.859v-2.732
	c-1.775,1.232-5.055,3.552-11.677,3.552c-8.878,0-12.768-5.393-12.768-11.403c0-2.118,0.477-5.052,3.002-7.578
	c3.211-3.278,7.035-3.824,13.249-4.645c3.891-0.546,5.391-0.887,7.51-1.501c-0.067-2.39-0.753-4.028-4.779-4.028
	c-3.21,0-4.099,0.817-4.574,3.276L240.349,25.306z M258.65,34.938c-1.16,0.269-2.388,0.543-3.617,0.952
	c-2.732,1.094-2.868,2.733-2.868,3.142c0,0.957,0.819,2.731,3.481,2.731c1.981,0,5.258-1.299,6.485-4.028
	c0.686-1.501,0.686-2.937,0.686-4.164C261.45,34.046,260.084,34.524,258.65,34.938"/>
<path fill="#FFFFFF" d="M293.685,18.564c3.825-3.413,6.421-4.659,11.814-4.659v11.878c-0.956-0.066-1.912-0.135-2.867-0.135
	c-8.262,0-8.4,5.394-8.468,7.717v16.659H280.25V14.449h13.435V18.564z"/>
<path fill="#B1E600" d="M310.263,1.816h17.211c6.416,0.069,8.124,0.138,10.446,0.82c4.848,1.434,8.466,5.736,8.466,10.994
	c0,2.117-0.682,4.713-2.049,6.553c-1.5,1.981-3.414,3.006-6.009,3.483c5.327,0.956,10.313,5.258,10.313,12.701
	c0,5.535-2.802,10.45-8.605,12.499c-3.073,1.089-5.462,1.158-10.927,1.158h-18.846V1.816z M319.211,9.19v12.019h3.07
	c2.527,0,4.372,0,5.462-0.068c2.254,0,4.509-0.069,6.147-0.958c1.913-0.955,3.21-2.795,3.21-4.98c0-1.847-0.957-3.689-2.799-4.782
	c-1.91-1.094-2.868-1.162-9.424-1.231H319.211z M319.211,27.968v14.271h8.878c5.321,0,6.757,0,9.079-1.635
	c1.228-0.89,2.187-2.733,2.187-5.056c0-1.093-0.207-2.387-0.89-3.617c-2.184-3.893-7.239-3.893-10.312-3.893L319.211,27.968z"/>
<rect x="351.348" y="1.816" fill="#B1E600" width="8.263" height="48.208"/>
<path fill="#B1E600" d="M363.881,25.921c0.138-1.707,0.276-3.14,1.368-5.123c3.276-5.941,11.403-5.941,13.588-5.941
	c3.278,0,7.238,0.414,10.242,2.187c4.027,2.46,4.096,5.669,4.096,9.354v18.099c0,2.593,0,3.483,1.504,5.527h-9.696
	c-0.069-0.818-0.205-2.185-0.205-2.66c-1.775,1.503-5.395,3.48-10.105,3.48c-7.717,0-12.36-4.78-12.36-10.648
	c0-1.71,0.409-3.281,1.09-4.648c2.459-4.918,7.718-6.008,10.995-6.624c7.032-1.431,7.579-1.568,10.585-2.526
	c0-1.705-0.139-5.188-5.805-5.188c-3.415,0-5.258,1.092-6.079,2.184c-0.887,1.095-0.818,2.049-0.818,3.004L363.881,25.921z
	 M384.983,33.023c-1.637,0.819-3.482,1.433-7.171,2.049c-2.935,0.409-6.829,1.093-6.829,4.711c0,2.665,2.254,4.027,5.53,4.027
	c4.168,0,7.103-1.908,7.99-3.96c0.48-1.023,0.48-2.045,0.48-3.07V33.023z"/>
<path fill="#B1E600" d="M428.659,1.816v48.208h-8.126v-3.276c-2.525,3.074-5.94,4.303-9.491,4.303
	c-8.127,0-15.16-6.078-15.16-17.345c0-10.174,5.735-18.849,15.5-18.849c3.346,0,6.555,0.958,9.151,3.826V1.816H428.659z
	 M418.619,25.581c-1.229-1.843-3.274-3.142-6.009-3.142c-5.529,0-8.192,4.984-8.192,10.379c0,0.615,0.07,10.858,8.056,10.858
	c4.234,0,8.059-3.141,7.992-10.514C420.394,30.976,420.125,27.834,418.619,25.581"/>
<path fill="#B1E600" d="M465.897,42.378c-4.233,5.669-9.694,8.673-16.66,8.673c-8.946,0-17.549-5.666-17.549-18.233
	c0-11.47,7.374-17.961,17.002-17.961c9.013,0,12.77,5.398,13.451,6.423c2.801,3.959,3.414,9.902,3.483,13.314h-25.265
	c0.957,5.395,4.301,8.467,9.696,8.467c5.601,0,7.855-3.278,8.876-4.712L465.897,42.378z M456.611,28.586
	c-0.752-5.328-4.029-7.17-7.649-7.17c-4.369,0-7.374,2.527-8.33,7.17H456.611z"/>
<path fill="#272525" d="M79.923,23.206c-1.938-0.209-3.87-0.495-5.785-0.848c-0.758-1.976-1.437-4.017-2.04-6.121
	c1.635,0.602,3.298,1.146,4.983,1.615C77.95,19.708,78.897,21.495,79.923,23.206"/>
<path fill="#001356" d="M86.519,23.616c-1.936-0.028-3.879-0.141-5.819-0.33c-1.06-1.677-2.04-3.428-2.943-5.249
	c1.691,0.451,3.402,0.831,5.121,1.13C84.014,20.73,85.227,22.215,86.519,23.616"/>
<path fill="#B1E600" d="M93.073,23.389c-1.894,0.161-3.816,0.238-5.749,0.232c-1.323-1.361-2.568-2.81-3.734-4.338
	c1.719,0.277,3.445,0.471,5.162,0.584C90.117,21.13,91.557,22.306,93.073,23.389"/>
<path fill="#848D93" d="M99.384,22.526c-1.808,0.345-3.665,0.611-5.551,0.795c-1.538-1.046-3.002-2.186-4.391-3.414
	c1.714,0.091,3.417,0.098,5.091,0.024C96.081,20.892,97.698,21.759,99.384,22.526"/>
<path fill="#272525" d="M54.328,16.904c-1.823-0.582-3.649-1.155-5.505-1.689c0.814-3,1.68-6.032,2.589-9.088
	c1.462,0.715,2.908,1.48,4.361,2.261C55.236,11.26,54.752,14.1,54.328,16.904"/>
<path fill="#001356" d="M60.534,18.88c-1.833-0.569-3.654-1.157-5.475-1.74c0.374-2.778,0.809-5.591,1.299-8.439
	c1.454,0.785,2.92,1.582,4.411,2.367C60.626,13.714,60.546,16.319,60.534,18.88"/>
<path fill="#B1E600" d="M66.855,20.712c-1.87-0.494-3.721-1.033-5.558-1.597c-0.036-2.529-0.004-5.105,0.092-7.723
	c1.498,0.78,3.021,1.546,4.576,2.273C66.191,16.066,66.486,18.415,66.855,20.712"/>
<path fill="#001356" d="M34.128,12.476c-2.252-0.151-4.648-0.185-7.261-0.065c2.384-3.55,4.783-7.118,7.187-10.704
	c2.106,0.011,4.016,0.181,5.802,0.478C37.926,5.634,36.014,9.066,34.128,12.476"/>
<path fill="#B1E600" d="M41.318,13.398c-1.999-0.376-4.078-0.672-6.293-0.853c1.82-3.39,3.67-6.802,5.538-10.231
	c1.753,0.329,3.389,0.779,4.958,1.318C44.087,6.91,42.683,10.166,41.318,13.398"/>
<path fill="#848D93" d="M47.892,14.951c-1.869-0.519-3.772-0.993-5.75-1.392c1.305-3.209,2.65-6.442,4.026-9.696
	c1.551,0.562,3.043,1.208,4.513,1.907C49.706,8.857,48.774,11.919,47.892,14.951"/>
<path fill="#848D93" d="M73.288,22.196c-1.912-0.37-3.806-0.806-5.681-1.288c-0.413-2.264-0.75-4.583-1.016-6.953
	c1.564,0.718,3.16,1.393,4.785,2.013C71.937,18.105,72.573,20.183,73.288,22.196"/>
<path fill="#272525" d="M83.829,28.858c-2.232,0.114-4.479,0.147-6.727,0.106c-0.945-1.814-1.809-3.702-2.591-5.655
	c1.961,0.31,3.936,0.554,5.915,0.721C81.479,25.716,82.612,27.328,83.829,28.858"/>
<path fill="#001356" d="M91.348,28.148c-2.183,0.305-4.396,0.523-6.625,0.658c-1.25-1.491-2.417-3.065-3.504-4.716
	c1.98,0.147,3.963,0.214,5.935,0.199C88.473,25.663,89.871,26.951,91.348,28.148"/>
<path fill="#B1E600" d="M98.65,26.782c-2.087,0.495-4.227,0.907-6.398,1.234c-1.506-1.157-2.934-2.405-4.282-3.74
	c1.967-0.039,3.92-0.162,5.843-0.369C95.351,24.961,96.964,25.92,98.65,26.782"/>
<path fill="#848D93" d="M105.523,24.795c-1.943,0.67-3.962,1.268-6.035,1.783c-1.708-0.822-3.344-1.742-4.906-2.758
	c1.914-0.228,3.795-0.54,5.624-0.928C101.913,23.627,103.687,24.263,105.523,24.795"/>
<path fill="#272525" d="M53.108,26.519c-2.273-0.333-4.564-0.668-6.901-0.974c0.683-2.926,1.427-5.887,2.225-8.879
	c1.922,0.503,3.811,1.045,5.695,1.594C53.723,21.052,53.381,23.805,53.108,26.519"/>
<path fill="#001356" d="M60.781,27.614c-2.247-0.298-4.497-0.626-6.764-0.96c0.221-2.684,0.512-5.41,0.866-8.174
	c1.881,0.551,3.76,1.105,5.649,1.637C60.543,22.663,60.624,25.164,60.781,27.614"/>
<path fill="#B1E600" d="M68.452,28.484c-2.248-0.203-4.493-0.46-6.739-0.75c-0.206-2.416-0.336-4.884-0.395-7.399
	c1.893,0.528,3.798,1.029,5.721,1.485C67.432,24.097,67.902,26.321,68.452,28.484"/>
<path fill="#001356" d="M27.686,24.274c-2.822,0.023-5.811,0.155-9.04,0.425c2.331-3.502,4.69-7.027,7.067-10.571
	c2.697-0.139,5.174-0.128,7.505,0C31.342,17.531,29.495,20.915,27.686,24.274"/>
<path fill="#B1E600" d="M36.735,24.561c-2.525-0.177-5.148-0.284-7.928-0.287c1.742-3.342,3.526-6.706,5.339-10.09
	c2.291,0.157,4.443,0.429,6.513,0.78C39.307,18.187,37.996,21.388,36.735,24.561"/>
<path fill="#848D93" d="M45.034,25.394c-2.354-0.295-4.759-0.557-7.255-0.753c1.197-3.149,2.445-6.328,3.737-9.53
	c2.047,0.373,4.018,0.819,5.951,1.309C46.602,19.443,45.787,22.435,45.034,25.394"/>
<path fill="#848D93" d="M76.104,28.945c-2.249-0.062-4.5-0.193-6.748-0.381c-0.594-2.128-1.107-4.316-1.544-6.563
	c1.927,0.443,3.87,0.837,5.829,1.166C74.381,25.16,75.201,27.088,76.104,28.945"/>
<path fill="#272525" d="M88.398,33.85c-2.521,0.464-5.079,0.841-7.661,1.139c-1.142-1.64-2.198-3.358-3.171-5.15
	c2.294-0.006,4.583-0.086,6.856-0.247C85.665,31.095,86.989,32.517,88.398,33.85"/>
<path fill="#001356" d="M96.809,31.945c-2.416,0.658-4.888,1.229-7.399,1.715c-1.442-1.292-2.8-2.673-4.077-4.138
	c2.269-0.182,4.519-0.449,6.736-0.802C93.57,29.888,95.151,30.966,96.809,31.945"/>
<path fill="#B1E600" d="M104.814,29.375c-2.262,0.845-4.604,1.61-7.004,2.292c-1.686-0.938-3.295-1.972-4.826-3.099
	c2.206-0.374,4.376-0.835,6.49-1.377C101.183,28.021,102.964,28.75,104.814,29.375"/>
<path fill="#848D93" d="M112.165,26.221c-2.051,1.005-4.208,1.946-6.448,2.812c-1.867-0.586-3.668-1.275-5.397-2.065
	c2.096-0.564,4.136-1.209,6.095-1.925C108.271,25.54,110.189,25.935,112.165,26.221"/>
<path fill="#272525" d="M52.442,35.805c-2.74-0.065-5.516-0.143-8.355-0.204c0.53-2.843,1.13-5.725,1.794-8.641
	c2.405,0.275,4.763,0.574,7.099,0.872C52.728,30.533,52.546,33.193,52.442,35.805"/>
<path fill="#001356" d="M61.642,35.939c-2.674-0.003-5.37-0.048-8.098-0.108c0.05-2.581,0.176-5.209,0.374-7.88
	c2.329,0.297,4.64,0.586,6.945,0.844C61.044,31.23,61.302,33.612,61.642,35.939"/>
<path fill="#B1E600" d="M70.701,35.767c-2.633,0.114-5.283,0.166-7.951,0.173c-0.391-2.29-0.7-4.638-0.93-7.038
	c2.303,0.249,4.604,0.464,6.904,0.624C69.3,31.669,69.958,33.751,70.701,35.767"/>
<path fill="#001356" d="M21.561,35.886c-3.42,0.204-7.028,0.503-10.902,0.926c2.25-3.451,4.542-6.926,6.864-10.422
	c3.317-0.29,6.388-0.443,9.292-0.491C25.019,29.251,23.265,32.581,21.561,35.886"/>
<path fill="#B1E600" d="M32.557,35.509c-3.074,0.032-6.267,0.122-9.638,0.302c1.636-3.283,3.323-6.594,5.052-9.927
	c2.858-0.02,5.558,0.062,8.157,0.213C34.883,29.263,33.689,32.401,32.557,35.509"/>
<path fill="#848D93" d="M42.662,35.569c-2.863-0.055-5.794-0.089-8.836-0.07c1.066-3.082,2.194-6.195,3.376-9.335
	c2.571,0.167,5.048,0.399,7.471,0.662C43.939,29.775,43.265,32.691,42.662,35.569"/>
<path fill="#848D93" d="M79.588,35.115c-2.588,0.274-5.2,0.471-7.828,0.602c-0.788-1.977-1.49-4.021-2.11-6.127
	c2.301,0.144,4.601,0.23,6.897,0.246C77.477,31.67,78.489,33.43,79.588,35.115"/>
<path fill="#272525" d="M93.645,38.133c-2.801,0.834-5.665,1.581-8.577,2.241c-1.343-1.448-2.599-2.981-3.769-4.595
	c2.628-0.348,5.229-0.776,7.79-1.29C90.523,35.795,92.043,37.012,93.645,38.133"/>
<path fill="#001356" d="M102.906,34.957c-2.634,1.031-5.354,1.978-8.138,2.835c-1.633-1.077-3.184-2.25-4.651-3.513
	c2.549-0.536,5.056-1.159,7.503-1.867C99.305,33.36,101.068,34.211,102.906,34.957"/>
<path fill="#B1E600" d="M111.539,31.126c-2.412,1.208-4.935,2.345-7.545,3.397c-1.862-0.7-3.649-1.506-5.36-2.411
	c2.431-0.731,4.8-1.547,7.085-2.441C107.591,30.263,109.533,30.75,111.539,31.126"/>
<path fill="#848D93" d="M119.271,26.772c-2.126,1.345-4.392,2.64-6.771,3.865c-2.022-0.335-3.981-0.779-5.873-1.33
	c2.261-0.915,4.436-1.905,6.499-2.957C115.12,26.601,117.17,26.743,119.271,26.772"/>
<path fill="#272525" d="M52.405,44.713c-3.223,0.229-6.501,0.431-9.863,0.636c0.355-2.75,0.789-5.543,1.296-8.375
	c2.911,0.028,5.756,0.069,8.563,0.095C52.322,39.665,52.322,42.215,52.405,44.713"/>
<path fill="#001356" d="M63.168,43.812c-3.113,0.316-6.267,0.58-9.474,0.813c-0.139-2.465-0.193-4.984-0.169-7.55
	c2.794,0.022,5.553,0.025,8.287-0.012C62.179,39.371,62.629,41.623,63.168,43.812"/>
<path fill="#B1E600" d="M73.647,42.51c-3.024,0.458-6.086,0.842-9.188,1.17c-0.59-2.149-1.093-4.362-1.512-6.635
	c2.729-0.05,5.437-0.146,8.124-0.306C71.842,38.732,72.7,40.657,73.647,42.51"/>
<path fill="#001356" d="M15.84,47.3c-4.043,0.396-8.295,0.869-12.841,1.45c2.142-3.399,4.338-6.823,6.575-10.269
	c3.964-0.444,7.659-0.765,11.163-0.994C19.049,40.784,17.413,44.056,15.84,47.3"/>
<path fill="#B1E600" d="M28.866,46.213c-3.647,0.259-7.433,0.561-11.418,0.935c1.502-3.222,3.067-6.471,4.685-9.746
	c3.455-0.207,6.729-0.327,9.882-0.391C30.901,40.109,29.848,43.178,28.866,46.213"/>
<path fill="#848D93" d="M40.853,45.445c-3.39,0.205-6.869,0.417-10.477,0.664c0.911-3.006,1.894-6.048,2.939-9.121
	c3.121-0.049,6.127-0.046,9.062-0.025C41.796,39.83,41.286,42.658,40.853,45.445"/>
<path fill="#848D93" d="M83.773,40.66c-2.928,0.635-5.902,1.186-8.916,1.662c-0.991-1.811-1.893-3.697-2.708-5.652
	c2.682-0.178,5.343-0.421,7.979-0.744C81.256,37.584,82.471,39.165,83.773,40.66"/>
</svg>
